<svg width="48" height="48" viewBox="0 0 48 48" fill="none" xmlns="http://www.w3.org/2000/svg">
<path d="M18.8232 7.16504H15.4883C14.675 7.1652 14.0156 7.82984 14.0156 8.64941V13.4326C14.0155 17.7912 12.0559 21.5398 8.97656 24C12.0559 26.4602 14.0155 30.2088 14.0156 34.5674V39.3506C14.0156 40.1702 14.675 40.8348 15.4883 40.835H18.8232V47H15.4883C10.7765 46.9998 6.95704 43.1505 6.95703 38.4023V34.0938C6.95703 30.2218 3.84224 27.0821 0 27.082V20.918L0.358398 20.9082C4.03409 20.7202 6.95703 17.6571 6.95703 13.9062V9.59766C6.95704 4.84947 10.7765 1.00016 15.4883 1H18.8232V7.16504ZM32.5117 1C37.2235 1.00016 41.043 4.84947 41.043 9.59766V13.9062C41.043 17.6571 43.9659 20.7202 47.6416 20.9082L48 20.918V27.082C44.1578 27.0821 41.043 30.2218 41.043 34.0938V38.4023C41.043 43.1505 37.2235 46.9998 32.5117 47H29.1768V40.835H32.5117C33.325 40.8348 33.9844 40.1702 33.9844 39.3506V34.5674C33.9845 30.2091 35.9434 26.4602 39.0225 24C35.9434 21.5398 33.9845 17.7909 33.9844 13.4326V8.64941C33.9844 7.82984 33.325 7.1652 32.5117 7.16504H29.1768V1H32.5117Z" fill="#38BDF8"/>
</svg>
